<?xml version="1.0" encoding="UTF-8" standalone="no"?>
<!-- Created with Inkscape (http://www.inkscape.org/) -->

<svg
   sodipodi:docname="qi.svg"
   inkscape:version="1.1 (c68e22c387, 2021-05-23)"
   id="svg5"
   version="1.1"
   viewBox="0 0 32 32"
   height="32mm"
   width="32mm"
   xmlns:inkscape="http://www.inkscape.org/namespaces/inkscape"
   xmlns:sodipodi="http://sodipodi.sourceforge.net/DTD/sodipodi-0.dtd"
   xmlns="http://www.w3.org/2000/svg"
   xmlns:svg="http://www.w3.org/2000/svg">
  <sodipodi:namedview
     id="namedview7"
     pagecolor="#505050"
     bordercolor="#eeeeee"
     borderopacity="1"
     inkscape:pageshadow="0"
     inkscape:pageopacity="0"
     inkscape:pagecheckerboard="0"
     inkscape:document-units="px"
     showgrid="false"
     inkscape:zoom="5.9366442"
     inkscape:cx="26.109026"
     inkscape:cy="54.239397"
     inkscape:window-width="3840"
     inkscape:window-height="1011"
     inkscape:window-x="0"
     inkscape:window-y="32"
     inkscape:window-maximized="1"
     inkscape:current-layer="text39583">
    <inkscape:grid
       type="xygrid"
       id="grid137342" />
  </sodipodi:namedview>
  <defs
     id="defs2">
    <rect
       x="110.53978"
       y="454.12476"
       width="46.280014"
       height="50.59528"
       id="rect39585" />
    <rect
       x="206.05865"
       y="407.24658"
       width="298.87662"
       height="332.94293"
       id="rect35047" />
    <rect
       x="216.60803"
       y="551.52667"
       width="235.45943"
       height="225.729"
       id="rect7277" />
    <rect
       x="161.31305"
       y="501.7117"
       width="396.36288"
       height="308.73801"
       id="rect2079" />
  </defs>
  <g
     inkscape:label="Lớp 1"
     inkscape:groupmode="layer"
     id="layer1">
    <text
       xml:space="preserve"
       transform="scale(0.26458333)"
       id="text2077"
       style="font-style:normal;font-weight:normal;font-size:40px;line-height:1.25;font-family:sans-serif;white-space:pre;shape-inside:url(#rect2079);fill:#000000;fill-opacity:1;stroke:none" />
    <text
       xml:space="preserve"
       transform="scale(0.26458333)"
       id="text7275"
       style="font-style:normal;font-variant:normal;font-weight:normal;font-stretch:normal;font-size:40px;line-height:1.25;font-family:'Noto Sans CJK JP';-inkscape-font-specification:'Noto Sans CJK JP';white-space:pre;shape-inside:url(#rect7277);fill:#000000;fill-opacity:1;stroke:none" />
    <text
       xml:space="preserve"
       transform="scale(0.26458333)"
       id="text35045"
       style="font-style:normal;font-weight:normal;font-size:40px;line-height:1.25;font-family:sans-serif;white-space:pre;shape-inside:url(#rect35047);fill:#000000;fill-opacity:1;stroke:none" />
    <g
       aria-label="氣
"
       transform="matrix(0.73045458,0,0,0.73045458,-79.396684,-333.93522)"
       id="text39583"
       style="font-size:40px;line-height:1.25;white-space:pre;shape-inside:url(#rect39585)">
      <path
         d="m 147.25906,466.885 v -2.36 h -24.44 c 0.52,-0.96 0.96,-1.92 1.36,-2.92 l -3.08,-0.8 c -1.84,4.76 -5.12,9.24 -8.84,12.08 0.76,0.48 2.12,1.36 2.76,1.92 2.28,-2.04 4.56,-4.8 6.48,-7.92 z m -3,4.8 v -2.24 h -23.76 v 2.24 z m -16.92,5.84 h -2.8 v 7 h -10.68 v 2.4 h 8.68 c -2.48,3.04 -6.36,6 -9.72,7.48 0.6,0.52 1.44,1.52 1.88,2.16 3.36,-1.76 7.2,-4.92 9.84,-8.32 v 9.08 h 2.8 v -7.4 c 3.04,1.84 6.32,4.12 8.08,5.72 l 1.96,-1.88 c -2.2,-1.88 -6.56,-4.64 -9.92,-6.48 l -0.12,0.12 v -0.48 h 10.48 v -2.4 h -10.48 z m -10.76,1.68 c 1.28,1.52 2.6,3.64 3.08,5.08 l 2.32,-1.04 c -0.48,-1.44 -1.84,-3.52 -3.16,-5.04 z m 16.6,-1.2 c -0.84,1.6 -2.44,3.96 -3.64,5.44 l 1.92,0.88 c 1.28,-1.36 2.92,-3.44 4.32,-5.32 z m -16.76,-3.68 v 2.36 h 22.68 c 0.36,11.76 1.4,20.64 6.56,20.64 2.4,0 3.04,-1.92 3.28,-6.88 -0.64,-0.36 -1.48,-1.12 -2,-1.72 -0.08,3.44 -0.32,5.72 -1.08,5.72 -2.88,0 -3.72,-9.76 -3.88,-20.12 z"
         style="font-family:'Noto Sans CJK JP';-inkscape-font-specification:'Noto Sans CJK JP'"
         id="path31226" />
    </g>
  </g>
</svg>
